<svg width="106" height="106" viewBox="0 0 106 106" fill="none" xmlns="http://www.w3.org/2000/svg">
<path d="M60.6498 96.1495L63.0441 92.1047L57.3426 88.7299L54.9483 92.7751L60.6498 96.1495ZM42.9552 92.1047L45.3496 96.1495L51.0506 92.7751L48.6563 88.7299L42.9552 92.1047ZM54.9483 92.7751C54.0972 94.2132 51.9021 94.2132 51.0506 92.7751L45.3496 96.1495C48.7663 101.922 57.233 101.922 60.6498 96.1495L54.9483 92.7751ZM46.3747 12.1458H59.6247V5.52081H46.3747V12.1458ZM93.8538 46.375V50.7916H100.479V46.375H93.8538ZM12.1455 50.7916V46.375H5.52051V50.7916H12.1455ZM5.52051 50.7916C5.52051 55.8911 5.5187 59.8816 5.73829 63.1C5.95997 66.3485 6.41811 69.0519 7.45364 71.5517L13.5743 69.0166C12.9289 67.4584 12.5466 65.5601 12.348 62.6491C12.1473 59.7085 12.1455 55.9817 12.1455 50.7916H5.52051ZM34.4607 80.567C28.9159 80.4712 26.0104 80.1188 23.733 79.1754L21.1978 85.296C24.7531 86.7685 28.8024 87.0953 34.3466 87.1907L34.4607 80.567ZM7.45364 71.5517C10.0312 77.7744 14.9751 82.7184 21.1978 85.296L23.733 79.1754C19.1336 77.27 15.4795 73.6161 13.5743 69.0166L7.45364 71.5517ZM93.8538 50.7916C93.8538 55.9817 93.8521 59.7085 93.6515 62.6491C93.4528 65.5601 93.0703 67.4584 92.425 69.0166L98.5457 71.5517C99.5814 69.0519 100.039 66.3485 100.261 63.1C100.481 59.8816 100.479 55.8911 100.479 50.7916H93.8538ZM71.6526 87.1907C77.1968 87.0953 81.2465 86.7685 84.8014 85.296L82.2663 79.1754C79.989 80.1188 77.0833 80.4712 71.5386 80.567L71.6526 87.1907ZM92.425 69.0166C90.5197 73.6161 86.8658 77.27 82.2663 79.1754L84.8014 85.296C91.0241 82.7184 95.9681 77.7744 98.5457 71.5517L92.425 69.0166ZM59.6247 12.1458C66.9175 12.1458 72.1547 12.1493 76.2397 12.5377C80.2757 12.9214 82.8435 13.6573 84.8906 14.9119L88.3524 9.26314C85.089 7.2635 81.3873 6.3723 76.8669 5.94247C72.3955 5.51732 66.7894 5.52081 59.6247 5.52081V12.1458ZM100.479 46.375C100.479 39.2103 100.482 33.6042 100.057 29.1328C99.6273 24.6121 98.736 20.9105 96.7366 17.6473L91.0877 21.1089C92.3424 23.1562 93.0783 25.7241 93.4621 29.7599C93.8503 33.8449 93.8538 39.082 93.8538 46.375H100.479ZM84.8906 14.9119C87.4165 16.4597 89.5401 18.5832 91.0877 21.1089L96.7366 17.6473C94.6426 14.2302 91.7696 11.3572 88.3524 9.26314L84.8906 14.9119ZM46.3747 5.52081C39.21 5.52081 33.6039 5.51732 29.1325 5.94247C24.6118 6.3723 20.9102 7.2635 17.647 9.26314L21.1086 14.9119C23.1559 13.6573 25.7238 12.9214 29.7596 12.5377C33.8446 12.1493 39.0817 12.1458 46.3747 12.1458V5.52081ZM12.1455 46.375C12.1455 39.082 12.149 33.8449 12.5374 29.7599C12.9211 25.7241 13.657 23.1562 14.9116 21.1089L9.26284 17.6473C7.26319 20.9105 6.372 24.6121 5.94217 29.1328C5.51702 33.6042 5.52051 39.2103 5.52051 46.375H12.1455ZM17.647 9.26314C14.2299 11.3572 11.3569 14.2302 9.26284 17.6473L14.9116 21.1089C16.4594 18.5832 18.5829 16.4597 21.1086 14.9119L17.647 9.26314ZM48.6563 88.7299C47.7597 87.215 46.9727 85.8781 46.2073 84.8278C45.4008 83.7219 44.4764 82.7259 43.194 81.9799L39.8633 87.707C40.0727 87.8285 40.3579 88.0506 40.8532 88.7299C41.3892 89.4657 41.9949 90.482 42.9552 92.1047L48.6563 88.7299ZM34.3466 87.1907C36.2859 87.2243 37.5143 87.249 38.4506 87.3524C39.3256 87.4495 39.6648 87.5913 39.8633 87.707L43.194 81.9799C41.901 81.2278 40.5555 80.9199 39.1798 80.7676C37.8655 80.6223 36.2771 80.5984 34.4607 80.567L34.3466 87.1907ZM63.0441 92.1047C64.0042 90.482 64.6098 89.4657 65.1459 88.7299C65.641 88.0506 65.9264 87.8285 66.1357 87.707L62.8051 81.9799C61.523 82.7259 60.5981 83.7219 59.7921 84.8278C59.0266 85.8781 58.2396 87.215 57.3426 88.7299L63.0441 92.1047ZM71.5386 80.567C69.722 80.5984 68.1338 80.6223 66.8194 80.7676C65.4436 80.9199 64.0983 81.2278 62.8051 81.9799L66.1357 87.707C66.3345 87.5913 66.6737 87.4495 67.5486 87.3524C68.4849 87.249 69.7132 87.2243 71.6526 87.1907L71.5386 80.567Z" fill="#00ABF5"/>
<path d="M53 35.8022L50.6331 38.1196C51.2563 38.756 52.1092 39.1147 53 39.1147C53.8908 39.1147 54.7437 38.756 55.3669 38.1196L53 35.8022ZM50.5046 60.5282C47.662 58.4334 44.0229 55.4592 41.1269 52.152C38.1282 48.7269 36.4375 45.5199 36.4375 42.9069H29.8125C29.8125 48.0343 32.8991 52.8119 36.1426 56.5161C39.4889 60.3379 43.5568 63.6375 46.5742 65.8613L50.5046 60.5282ZM36.4375 42.9069C36.4375 38.0144 38.6217 35.4381 40.8689 34.5979C43.1531 33.7438 46.795 34.1996 50.6331 38.1196L55.3669 33.4847C50.2617 28.2707 43.966 26.3668 38.5485 28.3925C33.094 30.4321 29.8125 35.9752 29.8125 42.9069H36.4375ZM59.4258 65.8613C62.4433 63.6375 66.511 60.3379 69.8575 56.5161C73.1007 52.8119 76.1875 48.0348 76.1875 42.9068H69.5625C69.5625 45.5199 67.8718 48.7273 64.8729 52.152C61.9769 55.4592 58.338 58.4334 55.4954 60.5282L59.4258 65.8613ZM76.1875 42.9068C76.1875 35.9752 72.9059 30.432 67.4513 28.3925C62.0338 26.3668 55.7383 28.2707 50.6331 33.4847L55.3669 38.1196C59.205 34.1996 62.847 33.7438 65.1313 34.5979C67.3785 35.4381 69.5625 38.0143 69.5625 42.9068H76.1875ZM46.5742 65.8613C48.3042 67.1364 50.2405 68.7247 53 68.7247V62.0997C52.9346 62.0997 52.8595 62.1098 52.5539 61.9446C52.1202 61.7097 51.5778 61.3192 50.5046 60.5282L46.5742 65.8613ZM55.4954 60.5282C54.4222 61.3192 53.8798 61.7097 53.4461 61.9446C53.1404 62.1098 53.0654 62.0997 53 62.0997V68.7247C55.7595 68.7247 57.6958 67.1364 59.4258 65.8613L55.4954 60.5282Z" fill="#F664BC"/>
</svg>
