<svg width="107" height="107" viewBox="0 0 107 107" fill="none" xmlns="http://www.w3.org/2000/svg">
<path d="M91.3958 57.9584C90.2134 57.9584 89.0794 58.4281 88.2433 59.2642C87.4072 60.1003 86.9375 61.2343 86.9375 62.4167V80.25C86.9375 81.4325 86.4678 82.5665 85.6317 83.4026C84.7956 84.2387 83.6616 84.7084 82.4792 84.7084H20.0625C18.8801 84.7084 17.7461 84.2387 16.91 83.4026C16.0739 82.5665 15.6042 81.4325 15.6042 80.25V37.4946L41.8192 63.7542C44.3214 66.236 47.702 67.6299 51.2262 67.6329C53.0109 67.6374 54.7783 67.2848 56.4246 66.5956C58.0708 65.9065 59.5624 64.8949 60.8117 63.6205L64.7796 59.6971C65.3901 58.8361 65.6754 57.7865 65.5847 56.7349C65.4939 55.6833 65.033 54.6981 64.284 53.9544C63.535 53.2107 62.5465 52.7569 61.4943 52.6737C60.4421 52.5905 59.3945 52.8833 58.5379 53.5L54.3917 57.5571C53.5583 58.374 52.4378 58.8316 51.2708 58.8316C50.1038 58.8316 48.9834 58.374 48.15 57.5571L21.8904 31.2084H42.3542C43.5366 31.2084 44.6706 30.7386 45.5067 29.9025C46.3428 29.0664 46.8125 27.9325 46.8125 26.75C46.8125 25.5676 46.3428 24.4336 45.5067 23.5975C44.6706 22.7614 43.5366 22.2917 42.3542 22.2917H20.0625C16.5152 22.2917 13.1132 23.7008 10.6049 26.2091C8.09665 28.7174 6.6875 32.1194 6.6875 35.6667V80.25C6.6875 83.7973 8.09665 87.1993 10.6049 89.7076C13.1132 92.2159 16.5152 93.625 20.0625 93.625H82.4792C86.0264 93.625 89.4284 92.2159 91.9367 89.7076C94.445 87.1993 95.8542 83.7973 95.8542 80.25V62.4167C95.8542 61.2343 95.3844 60.1003 94.5483 59.2642C93.7122 58.4281 92.5783 57.9584 91.3958 57.9584ZM96.0771 17.8334C93.8181 15.6555 90.9272 14.2494 87.8194 13.8169C84.7115 13.3844 81.5465 13.9476 78.7787 15.4259C75.7288 13.7484 72.1768 13.225 68.7726 13.9514C65.3684 14.6777 62.3395 16.6053 60.2397 19.3815C58.14 22.1577 57.1098 25.597 57.3377 29.0703C57.5655 32.5437 59.036 35.819 61.4804 38.2971L75.7917 52.2071C76.646 53.0218 77.7767 53.4836 78.9571 53.5C79.5438 53.5034 80.1255 53.391 80.6687 53.1691C81.2119 52.9472 81.7059 52.6203 82.1225 52.2071L96.2554 38.0742C98.8627 35.3391 100.302 31.6962 100.269 27.9176C100.236 24.1391 98.7321 20.5221 96.0771 17.8334ZM89.7908 31.7434L78.7787 42.7555L67.8112 31.7434C67.296 31.2194 66.8891 30.599 66.6136 29.9177C66.3381 29.2365 66.1995 28.5076 66.2057 27.7727C66.2183 26.2887 66.8199 24.8704 67.8781 23.8298C68.9364 22.7893 70.3647 22.2118 71.8487 22.2243C73.3328 22.2369 74.7511 22.8384 75.7917 23.8967C76.2061 24.3146 76.6992 24.6462 77.2425 24.8726C77.7858 25.0989 78.3685 25.2155 78.9571 25.2155C79.5456 25.2155 80.1284 25.0989 80.6716 24.8726C81.2149 24.6462 81.708 24.3146 82.1225 23.8967C83.1823 22.8933 84.5863 22.3341 86.0458 22.3341C87.5053 22.3341 88.9093 22.8933 89.9692 23.8967C90.9696 24.9691 91.511 26.3902 91.4776 27.8563C91.4443 29.3225 90.8389 30.7176 89.7908 31.7434Z" fill="#F664BC"/>
<path fill-rule="evenodd" clip-rule="evenodd" d="M88.2433 59.2641C89.0794 58.428 90.2134 57.9583 91.3958 57.9583C92.5782 57.9583 93.7122 58.428 94.5483 59.2641C95.3844 60.1002 95.8542 61.2342 95.8542 62.4166V80.25C95.8542 83.7972 94.445 87.1992 91.9367 89.7075C89.4284 92.2158 86.0264 93.625 82.4792 93.625H20.0625C16.5152 93.625 13.1132 92.2158 10.6049 89.7075C8.09665 87.1992 6.6875 83.7972 6.6875 80.25V35.6666C6.6875 32.1194 8.09665 28.7174 10.6049 26.2091C13.1132 23.7008 16.5152 22.2916 20.0625 22.2916H42.3542C43.5366 22.2916 44.6706 22.7613 45.5067 23.5974C46.3428 24.4335 46.8125 25.5675 46.8125 26.75C46.8125 27.9324 46.3428 29.0664 45.5067 29.9025C44.6706 30.7386 43.5366 31.2083 42.3542 31.2083H21.8904L48.15 57.557C48.9834 58.3739 50.1038 58.8315 51.2708 58.8315C52.4378 58.8315 53.5583 58.3739 54.3917 57.557L58.5379 53.5C59.3945 52.8833 60.4421 52.5905 61.4943 52.6737C62.5465 52.7569 63.535 53.2107 64.284 53.9543C65.033 54.698 65.4939 55.6833 65.5847 56.7348C65.6754 57.7864 65.3901 58.8361 64.7796 59.697L60.8117 63.6204C59.5624 64.8949 58.0708 65.9065 56.4246 66.5956C54.7783 67.2847 53.0109 67.6374 51.2262 67.6329C47.702 67.6298 44.3214 66.2359 41.8192 63.7541L15.6042 37.4945V80.25C15.6042 81.4324 16.0739 82.5664 16.91 83.4025C17.7461 84.2386 18.8801 84.7083 20.0625 84.7083H82.4792C83.6616 84.7083 84.7956 84.2386 85.6317 83.4025C86.4678 82.5664 86.9375 81.4324 86.9375 80.25V62.4166C86.9375 61.2342 87.4072 60.1002 88.2433 59.2641Z" fill="#00ABF5"/>
</svg>
