<svg width="115" height="115" viewBox="0 0 115 115" fill="none" xmlns="http://www.w3.org/2000/svg">
<g clip-path="url(#clip0_5_201)">
<path d="M24.917 45.0416C24.917 46.6266 26.2069 47.9166 27.792 47.9166C29.3771 47.9166 30.667 46.6266 30.667 45.0416C30.667 43.4565 29.3771 42.1666 27.792 42.1666C26.2069 42.1666 24.917 43.4565 24.917 45.0416ZM28.7504 45.0416C28.7504 45.5705 28.3192 46 27.792 46C27.2648 46 26.8336 45.5707 26.8336 45.0416C26.8336 44.5126 27.2648 44.0832 27.792 44.0832C28.3192 44.0832 28.7504 44.5126 28.7504 45.0416Z" fill="#00ABF5"/>
<path d="M94.0237 20.6578C94.5354 21.2251 95.3424 21.4282 96.0591 21.1829L98.5393 20.3339L100.255 22.4499C100.626 22.9099 101.176 23.1611 101.744 23.1611C101.956 23.1611 102.175 23.1247 102.384 23.0499C103.149 22.7797 103.66 22.0551 103.66 21.2445V18.5954L106.434 17.2096C107.084 16.8837 107.494 16.2206 107.494 15.4942C107.494 14.7679 107.084 14.1046 106.434 13.7789L103.66 12.3931V9.74424C103.66 8.91431 103.126 8.17826 102.336 7.92154C101.55 7.66863 100.682 7.94445 100.193 8.61738L98.6004 10.81L96.0856 9.9091C95.3689 9.65238 94.5581 9.84577 94.0367 10.4093C93.5134 10.9708 93.3775 11.7893 93.6879 12.4908L95.0506 15.567L93.6917 18.5799C93.3798 19.2778 93.5082 20.0945 94.0237 20.6578ZM98.9764 14.9864C99.4134 15.065 99.8618 14.9846 100.245 14.7717C100.416 14.9844 100.632 15.1645 100.887 15.293L101.292 15.4942L100.887 15.6955C100.561 15.8604 100.293 16.1094 100.109 16.4084C99.8274 16.2532 99.5091 16.1726 99.1873 16.1726C99.1145 16.1726 99.0415 16.1746 98.9669 16.184C99.0972 15.7972 99.101 15.3754 98.9764 14.9864Z" fill="#F664BC"/>
<path d="M55.5834 11.1453V30.6666C55.5834 31.7245 56.4401 32.5832 57.5 32.5832C58.5599 32.5832 59.4166 31.7245 59.4166 30.6666V11.1474C61.642 10.352 63.25 8.24541 63.25 5.75C63.25 2.57986 60.6701 0 57.5 0C54.3299 0 51.75 2.57986 51.75 5.75C51.75 8.24541 53.3582 10.352 55.5834 11.1453ZM57.5 3.83341C58.5579 3.83341 59.4166 4.69389 59.4166 5.75C59.4166 6.80611 58.5579 7.66659 57.5 7.66659C56.4421 7.66659 55.5834 6.80611 55.5834 5.75C55.5834 4.69389 56.4421 3.83341 57.5 3.83341Z" fill="#00ABF5"/>
<path d="M84.3335 45.0416C84.3335 46.6266 85.6234 47.9166 87.2085 47.9166C88.7936 47.9166 90.0835 46.6266 90.0835 45.0416C90.0835 43.4565 88.7936 42.1666 87.2085 42.1666C85.6234 42.1666 84.3335 43.4565 84.3335 45.0416ZM88.1667 45.0416C88.1667 45.5705 87.7354 46 87.2083 46C86.6811 46 86.2501 45.5707 86.2501 45.0416C86.2501 44.5126 86.6813 44.0832 87.2085 44.0832C87.7357 44.0832 88.1667 44.5126 88.1667 45.0416Z" fill="#F664BC"/>
<path d="M69.9585 30.6666C71.5436 30.6666 72.8335 29.3766 72.8335 27.7916C72.8335 26.2065 71.5436 24.9166 69.9585 24.9166C68.3734 24.9166 67.0835 26.2065 67.0835 27.7916C67.0835 29.3766 68.3734 30.6666 69.9585 30.6666ZM69.9585 26.8334C70.4857 26.8334 70.9169 27.2626 70.9169 27.7918C70.9169 28.321 70.4857 28.7502 69.9585 28.7502C69.4313 28.7502 69.0001 28.321 69.0001 27.7918C69.0001 27.2626 69.4313 26.8334 69.9585 26.8334Z" fill="#00ABF5"/>
<path d="M71.4782 43.5217C71.8519 43.8954 72.3427 44.0832 72.8332 44.0832C73.324 44.0832 73.8145 43.8954 74.1883 43.5217L91.4383 26.2717C92.1878 25.5221 92.1878 24.3108 91.4383 23.5615C90.689 22.812 89.4774 22.812 88.7282 23.5615L71.4782 40.8115C70.7286 41.5611 70.7286 42.7724 71.4782 43.5217Z" fill="#F664BC"/>
<path d="M45.042 30.6666C46.6271 30.6666 47.917 29.3766 47.917 27.7916C47.917 26.2065 46.6271 24.9166 45.042 24.9166C43.4569 24.9166 42.167 26.2065 42.167 27.7916C42.167 29.3766 43.4569 30.6666 45.042 30.6666ZM45.042 26.8334C45.5692 26.8334 46.0004 27.2626 46.0004 27.7918C46.0004 28.321 45.5692 28.75 45.042 28.75C44.5148 28.75 44.0836 28.3207 44.0836 27.7916C44.0836 27.2624 44.5151 26.8334 45.042 26.8334Z" fill="#F664BC"/>
<path d="M40.8115 43.5217C41.1853 43.8954 41.676 44.0832 42.1666 44.0832C42.6573 44.0832 43.1479 43.8954 43.5216 43.5235C44.2712 42.7739 44.2712 41.5608 43.5216 40.8113L26.3118 23.5921C25.5623 22.8426 24.3492 22.8446 23.5997 23.5921C22.8522 24.3396 22.8522 25.5547 23.5997 26.3022L40.8115 43.5217Z" fill="#F664BC"/>
<path d="M76.1053 73.3949C75.356 72.6454 74.1444 72.6454 73.3951 73.3949C72.6456 74.1442 72.6456 75.3557 73.3951 76.105L88.7286 91.4384C89.1023 91.8122 89.5931 92 90.0836 92C90.5744 92 91.0649 91.8122 91.4387 91.4384C92.1882 90.6892 92.1882 89.4776 91.4387 88.7283L76.1053 73.3949Z" fill="#F664BC"/>
<path d="M69.9585 84.3334C68.3734 84.3334 67.0835 85.6233 67.0835 87.2084C67.0835 88.7934 68.3734 90.0834 69.9585 90.0834C71.5436 90.0834 72.8335 88.7934 72.8335 87.2084C72.8335 85.6233 71.5436 84.3334 69.9585 84.3334ZM69.9585 88.1666C69.4313 88.1666 69.0001 87.7373 69.0001 87.2081C69.0001 86.6792 69.4313 86.2497 69.9585 86.2497C70.4857 86.2497 70.9169 86.679 70.9169 87.2081C70.9167 87.7373 70.4854 88.1666 69.9585 88.1666Z" fill="#F664BC"/>
<path d="M90.0835 69.9584C90.0835 68.3733 88.7936 67.0834 87.2085 67.0834C85.6234 67.0834 84.3335 68.3733 84.3335 69.9584C84.3335 71.5434 85.6234 72.8334 87.2085 72.8334C88.7936 72.8334 90.0835 71.5434 90.0835 69.9584ZM86.2501 69.9584C86.2501 69.4294 86.6813 69 87.2085 69C87.7357 69 88.1669 69.4292 88.1669 69.9584C88.1669 70.4876 87.7357 70.9168 87.2085 70.9168C86.6813 70.9168 86.2501 70.4873 86.2501 69.9584Z" fill="#00ABF5"/>
<path d="M8.45668 14.9673L10.6493 16.56L9.74841 19.0727C9.48966 19.7953 9.68709 20.6003 10.2486 21.1236C10.6089 21.4589 11.0765 21.6353 11.552 21.6353C11.8146 21.6353 12.081 21.5816 12.3303 21.4704L15.4065 20.1077L18.4195 21.4666C19.1191 21.7828 19.9317 21.6505 20.4971 21.1368C21.0624 20.6214 21.2695 19.822 21.0222 19.0994L20.1732 16.6193L22.2892 14.9057C22.9217 14.3959 23.1614 13.541 22.8892 12.7762C22.619 12.0114 21.8964 11.4998 21.0838 11.4998H18.435L17.0491 8.72628C16.3975 7.42669 14.27 7.42669 13.6182 8.72628L12.2326 11.5H9.58377C8.75204 11.5 8.01779 12.0348 7.76106 12.8245C7.50411 13.614 7.78577 14.4803 8.45668 14.9673ZM15.1325 14.2735L15.3338 13.8689L15.535 14.2735C15.6979 14.6012 15.9472 14.8658 16.2479 15.0497C16.0581 15.3967 15.9777 15.7952 16.0238 16.1921C15.8263 16.1269 15.6175 16.0923 15.4124 16.0923C15.215 16.0923 15.0175 16.1231 14.8259 16.1844C14.9025 15.7455 14.8221 15.297 14.6112 14.9174C14.8239 14.7449 15.004 14.5284 15.1325 14.2735Z" fill="#F664BC"/>
<path d="M109.25 51.75C106.755 51.75 104.648 53.3562 103.855 55.5834H78.5836C77.5237 55.5834 76.667 56.4421 76.667 57.5C76.667 58.5579 77.5237 59.4166 78.5836 59.4166H103.855C104.648 61.6438 106.755 63.25 109.25 63.25C112.42 63.25 115 60.6701 115 57.5C115 54.3299 112.42 51.75 109.25 51.75ZM109.25 59.4166C108.192 59.4166 107.334 58.5561 107.334 57.5C107.334 56.4439 108.192 55.5834 109.25 55.5834C110.308 55.5834 111.167 56.4439 111.167 57.5C111.167 58.5561 110.308 59.4166 109.25 59.4166Z" fill="#00ABF5"/>
<path d="M106.544 100.355L104.351 98.7621L105.252 96.2474C105.511 95.5248 105.313 94.7178 104.752 94.1965C104.19 93.6752 103.37 93.5372 102.67 93.8497L99.5939 95.2124L96.581 93.8535C95.8851 93.5431 95.0687 93.6695 94.5033 94.1832C93.938 94.6989 93.7309 95.4981 93.9782 96.2207L94.8272 98.7028L92.7094 100.416C92.0789 100.928 91.8392 101.781 92.1115 102.546C92.3817 103.311 93.1042 103.822 93.9169 103.822H96.5657L97.9515 106.596C98.2774 107.246 98.9405 107.656 99.6669 107.656C100.393 107.656 101.057 107.246 101.382 106.596L102.768 103.822H105.417C106.249 103.822 106.983 103.288 107.24 102.498C107.496 101.708 107.214 100.844 106.544 100.355ZM99.8677 101.049L99.6664 101.453L99.4652 101.049C99.3023 100.721 99.053 100.456 98.7502 100.27C98.9418 99.9254 99.0225 99.5249 98.9764 99.128C99.3654 99.2583 99.7852 99.2603 100.174 99.1377C100.098 99.5765 100.178 100.025 100.391 100.405C100.176 100.575 99.9961 100.794 99.8677 101.049Z" fill="#F664BC"/>
<path d="M69.2545 69.9009C69.6647 69.3699 70.071 68.4212 69.6782 66.9244C69.2795 65.4065 68.1506 60.8561 67.6082 58.6635L73.5154 54.0787C74.583 53.2488 75.0506 51.7576 74.6501 50.4583C74.2725 49.2279 73.2203 48.4094 71.9438 48.3269C71.0546 48.2542 66.3643 47.8362 64.1429 47.639L60.5339 38.6651C59.978 37.2793 58.8262 36.4168 57.5266 36.4168C56.1542 36.4168 54.9851 37.3732 54.5826 38.7397C54.2473 39.6483 52.2442 45.195 51.3606 47.6369L43.0345 48.3422C41.7466 48.4514 40.7269 49.266 40.3761 50.4679C40.0043 51.7367 40.4623 53.1742 41.4877 53.9602C42.0263 54.3741 45.9419 57.2453 47.8816 58.6655L45.5068 66.8229C44.9952 68.3275 45.3572 69.3012 45.7521 69.8531C46.6645 71.1239 48.7574 71.2427 50.2562 70.1999C51.021 69.6671 55.4121 66.5295 57.5108 65.0325C59.5981 66.5237 63.9547 69.6383 64.7558 70.194C65.442 70.6731 66.2699 70.9474 67.0329 70.9474C67.93 70.9474 68.7409 70.566 69.2545 69.9009ZM63.5888 58.3722C63.5888 58.3722 64.7177 62.9531 65.4825 66.012C63.0349 64.2697 58.6265 61.1169 58.6265 61.1169C58.2929 60.8772 57.9019 60.7584 57.5111 60.7584C57.1203 60.7584 56.731 60.8772 56.3957 61.1169C56.3957 61.1169 52.3073 64.0397 49.787 65.8339L51.9394 58.449C52.1656 57.6747 51.8799 56.8428 51.2303 56.3655C51.2303 56.3655 47.4623 53.6093 45.2791 51.9993L52.9075 51.3533C53.653 51.29 54.2933 50.7994 54.5482 50.096C54.5482 50.096 56.5205 44.6355 57.6016 41.6473L61.0249 50.1591C61.2933 50.828 61.9161 51.29 62.6328 51.3531C62.6328 51.3531 67.254 51.7653 69.9412 52.0009L64.2736 56.3976C63.677 56.8617 63.4068 57.6361 63.5888 58.3722Z" fill="#F664BC"/>
<path d="M24.917 69.9584C24.917 71.5434 26.2069 72.8334 27.792 72.8334C29.3771 72.8334 30.667 71.5434 30.667 69.9584C30.667 68.3733 29.3771 67.0834 27.792 67.0834C26.2069 67.0834 24.917 68.3733 24.917 69.9584ZM28.7504 69.9584C28.7504 70.4873 28.3192 70.9168 27.792 70.9168C27.2648 70.9168 26.8336 70.4876 26.8336 69.9584C26.8336 69.4292 27.2648 69 27.792 69C28.3192 69 28.7504 69.4292 28.7504 69.9584Z" fill="#F664BC"/>
<path d="M11.1453 59.4166H36.4166C37.4765 59.4166 38.3332 58.5579 38.3332 57.5C38.3332 56.4421 37.4765 55.5834 36.4166 55.5834H11.1453C10.352 53.3562 8.24541 51.75 5.75 51.75C2.57986 51.75 0 54.3299 0 57.5C0 60.6701 2.57986 63.25 5.75 63.25C8.24541 63.25 10.352 61.6438 11.1453 59.4166ZM5.75 59.4166C4.69209 59.4166 3.83341 58.5561 3.83341 57.5C3.83341 56.4439 4.69209 55.5834 5.75 55.5834C6.80791 55.5834 7.66659 56.4439 7.66659 57.5C7.66659 58.5561 6.80791 59.4166 5.75 59.4166Z" fill="#00ABF5"/>
<path d="M20.9761 94.6641C20.4645 94.0987 19.6575 93.8916 18.9407 94.1389L16.4606 94.988L14.7452 92.8719C14.2336 92.2414 13.3805 91.9959 12.6157 92.272C11.8509 92.5422 11.3393 93.2668 11.3393 94.0774V96.7262L8.56579 98.1121C7.916 98.438 7.50586 99.101 7.50586 99.8274C7.50586 100.554 7.916 101.217 8.56579 101.543L11.3393 102.929V105.577C11.3393 106.407 11.8741 107.143 12.6638 107.4C12.8592 107.463 13.0587 107.494 13.2561 107.494C13.856 107.494 14.4387 107.21 14.8066 106.704L16.3993 104.512L18.914 105.413C19.6366 105.673 20.4436 105.478 20.9649 104.912C21.4862 104.351 21.6223 103.532 21.3119 102.831L19.9492 99.7546L21.3081 96.7417C21.6201 96.0441 21.4916 95.2276 20.9761 94.6641ZM16.0235 100.335C15.5884 100.257 15.1361 100.337 14.7547 100.55C14.5842 100.337 14.3675 100.157 14.1125 100.029L13.708 99.8276L14.1125 99.6264C14.4384 99.4615 14.7066 99.2124 14.8908 98.9135C15.2358 99.1033 15.6248 99.1837 16.0332 99.1376C15.9027 99.5248 15.8988 99.9464 16.0235 100.335Z" fill="#F664BC"/>
<path d="M45.042 84.3334C43.4569 84.3334 42.167 85.6233 42.167 87.2084C42.167 88.7934 43.4569 90.0834 45.042 90.0834C46.6271 90.0834 47.917 88.7934 47.917 87.2084C47.917 85.6233 46.6271 84.3334 45.042 84.3334ZM45.042 88.1666C44.5148 88.1666 44.0836 87.7373 44.0836 87.2081C44.0836 86.6792 44.5148 86.2497 45.042 86.2497C45.5692 86.2497 46.0004 86.679 46.0004 87.2081C46.0004 87.7373 45.5692 88.1666 45.042 88.1666Z" fill="#00ABF5"/>
<path d="M59.4166 103.853V74.75C59.4166 73.6921 58.5599 72.8334 57.5 72.8334C56.4401 72.8334 55.5834 73.6921 55.5834 74.75V103.853C53.3582 104.648 51.75 106.754 51.75 109.25C51.75 112.42 54.3299 115 57.5 115C60.6701 115 63.25 112.42 63.25 109.25C63.25 106.755 61.642 104.648 59.4166 103.853ZM57.5 111.167C56.4421 111.167 55.5834 110.306 55.5834 109.25C55.5834 108.194 56.4421 107.333 57.5 107.333C58.5579 107.333 59.4166 108.194 59.4166 109.25C59.4166 110.306 58.5579 111.167 57.5 111.167Z" fill="#00ABF5"/>
<path d="M41.6047 73.3949C40.8552 72.6454 39.6439 72.6454 38.8946 73.3949L23.5612 88.7283C22.8116 89.4776 22.8116 90.6892 23.5612 91.4384C23.9349 91.8122 24.4257 92 24.9162 92C25.407 92 25.8976 91.8122 26.2713 91.4384L41.6047 76.105C42.3542 75.3557 42.3542 74.1442 41.6047 73.3949Z" fill="#F664BC"/>
</g>
<defs>
<clipPath id="clip0_5_201">
<rect width="115" height="115" fill="white"/>
</clipPath>
</defs>
</svg>
