<svg width="142" height="82" viewBox="0 0 142 82" fill="none" xmlns="http://www.w3.org/2000/svg">
<path d="M48.6086 71.6853L48.1627 71.4538L16.8509 55.0159C11.3646 52.1369 7.34255 47.1152 5.73918 41.1589L5.6129 40.6898C2.91892 30.6821 7.76678 20.1865 17.1699 15.6674C22.5205 13.0823 28.6391 12.8369 34.1001 14.8238C35.6336 15.3899 37.1195 16.121 38.533 17.0391C38.9507 16.1964 39.4266 15.399 39.957 14.6329C40.3644 14.0367 40.7937 13.4651 41.2592 12.9143C44.9906 8.47575 50.4127 5.64312 56.3411 5.20464C66.7545 4.4384 76.2288 11.1293 78.9228 21.137L79.049 21.6061C80.6524 27.5624 79.6917 33.9131 76.3866 39.1369L57.5268 68.9562L57.2569 69.3787C56.3736 70.7722 54.9918 71.7959 53.3881 72.2236C51.7845 72.6513 50.0774 72.4667 48.6086 71.6853ZM38.1452 25.2329C38.0764 25.2055 38.0182 25.1601 37.9599 25.1147L34.6459 22.9514L34.6277 22.941C30.3291 20.1414 24.8805 19.7967 20.261 22.0191C13.9292 25.0639 10.6719 32.1186 12.4857 38.8567L12.612 39.3258C13.7026 43.3772 16.4511 46.8036 20.186 48.7633L51.4978 65.2012L70.3575 35.3818C72.6076 31.8259 73.2668 27.4906 72.1762 23.4392L72.05 22.9701C70.24 16.2462 63.8715 11.7436 56.8729 12.2542C51.756 12.6286 47.1999 15.6569 44.894 20.2028C44.894 20.2028 44.894 20.2028 44.8835 20.2209C44.873 20.2389 44.8835 20.2209 44.873 20.2389L43.0897 23.7618C43.062 23.8301 43.0162 23.888 42.9886 23.9563C42.5165 24.7679 41.7387 25.3562 40.8367 25.5968C39.9346 25.8374 38.9655 25.715 38.149 25.2471L38.1452 25.2329Z" fill="#00ABF5"/>
<path fill-rule="evenodd" clip-rule="evenodd" d="M84.4734 68.6702L84.7433 69.0927C85.6228 70.5004 87.0085 71.5099 88.6121 71.9376C90.2158 72.3653 91.9267 72.1665 93.3916 71.3993L93.8376 71.1678L125.149 54.7299C130.636 51.8509 134.658 46.8292 136.261 40.8729L136.387 40.4038C139.081 30.3961 134.237 19.8863 124.834 15.3671C119.48 12.7963 113.361 12.5509 107.9 14.5378C107.22 14.783 106.561 15.0644 105.909 15.378C105.065 15.7775 104.252 16.2311 103.467 16.7531C102.704 15.2545 101.785 13.8818 100.741 12.6283C97.0097 8.18974 91.5876 5.35711 85.6553 4.93284C75.2419 4.16661 65.7715 10.8433 63.0775 20.851L62.9512 21.3201C61.3478 27.2764 62.3085 33.6271 65.6137 38.8509L66.9423 40.9516L71.1146 34.1934C69.2951 30.821 68.8241 26.8678 69.824 23.1532L69.9503 22.6841C71.7641 15.9459 78.1287 11.4576 85.1416 11.972C90.2586 12.3465 94.8041 15.3567 97.1206 19.9207L97.1311 19.9387L98.9144 23.4616L98.9144 23.4616C98.942 23.5299 98.9697 23.5982 99.0155 23.6561L99.0117 23.6703C99.4838 24.4819 100.262 25.0702 101.164 25.3108C102.066 25.5514 103.035 25.429 103.851 24.9611C103.88 24.9384 103.912 24.9202 103.944 24.902C103.976 24.8838 104.007 24.8656 104.037 24.8429L107.351 22.6796L107.36 22.6743L107.369 22.6692L107.387 22.6588C111.667 19.8696 117.134 19.5145 121.754 21.737C128.071 24.7779 131.325 31.8468 129.515 38.5707L129.388 39.0398C128.298 43.0912 125.549 46.5176 121.814 48.4773L90.5025 64.9151L75.284 40.853L71.1327 47.5772L84.4734 68.6702Z" fill="#F664BC"/>
</svg>
