<svg width="137" height="79" viewBox="0 0 137 79" fill="none" xmlns="http://www.w3.org/2000/svg">
<path d="M46.8971 69.0626L46.4668 68.8396L16.2576 53.0031C10.9644 50.2294 7.08401 45.3914 5.53709 39.6531L5.41526 39.2011C2.81614 29.5595 7.4933 19.4479 16.5654 15.0941C21.7276 12.6037 27.6306 12.3673 32.8994 14.2814C34.3789 14.8268 35.8125 15.5312 37.1762 16.4157C37.5792 15.6038 38.0384 14.8356 38.5501 14.0975C38.9431 13.5231 39.3573 12.9725 39.8064 12.4418C43.4064 8.16563 48.6376 5.43664 54.3572 5.0142C64.404 4.276 73.5447 10.7221 76.1438 20.3637L76.2656 20.8156C77.8125 26.554 76.8857 32.6724 73.6969 37.7051L55.5012 66.4334L55.2408 66.8404C54.3886 68.1829 53.0555 69.1692 51.5083 69.5813C49.9611 69.9933 48.3141 69.8155 46.8971 69.0626ZM36.802 24.3097C36.7357 24.2834 36.6795 24.2396 36.6233 24.1959L33.426 22.1117L33.4085 22.1017C29.2612 19.4044 24.0044 19.0724 19.5475 21.2135C13.4387 24.1469 10.2961 30.9435 12.0461 37.4351L12.1679 37.887C13.2201 41.7902 15.8719 45.0913 19.4753 46.9792L49.6845 62.8157L67.8801 34.0874C70.051 30.6615 70.687 26.4848 69.6348 22.5817L69.513 22.1297C67.7667 15.6518 61.6225 11.314 54.8704 11.8059C49.9336 12.1666 45.538 15.0841 43.3132 19.4637C43.3132 19.4637 43.3132 19.4637 43.3031 19.4811C43.293 19.4984 43.3031 19.4811 43.293 19.4984L41.5724 22.8924C41.5458 22.9582 41.5016 23.014 41.4749 23.0799C41.0194 23.8617 40.269 24.4285 39.3987 24.6603C38.5285 24.8921 37.5935 24.7742 36.8057 24.3234L36.802 24.3097Z" fill="white"/>
<path fill-rule="evenodd" clip-rule="evenodd" d="M81.4984 66.1579L81.7589 66.5649C82.6074 67.9211 83.9442 68.8937 85.4914 69.3057C87.0386 69.7178 88.6893 69.5263 90.1026 68.7871L90.5329 68.5641L120.742 52.7276C126.035 49.9539 129.916 45.1159 131.463 39.3775L131.584 38.9256C134.184 29.284 129.51 19.1587 120.438 14.8049C115.272 12.3282 109.369 12.0917 104.1 14.0059C103.444 14.2422 102.809 14.5132 102.179 14.8154C101.365 15.2003 100.581 15.6373 99.8235 16.1402C99.0874 14.6964 98.2002 13.3739 97.1932 12.1663C93.5933 7.89011 88.3621 5.16112 82.6387 4.75237C72.592 4.01417 63.455 10.4466 60.8559 20.0882L60.7341 20.5401C59.1871 26.2785 60.114 32.3968 63.3028 37.4295L64.5846 39.4534L68.61 32.9424C66.8546 29.6934 66.4001 25.8848 67.3649 22.3061L67.4867 21.8542C69.2367 15.3626 75.3771 11.0384 82.1431 11.534C87.0799 11.8948 91.4654 14.7949 93.7003 19.1919L93.7104 19.2092L95.4309 22.6032C95.4576 22.669 95.4843 22.7348 95.5285 22.7906L95.5248 22.8043C95.9803 23.5862 96.7306 24.153 97.6009 24.3848C98.4712 24.6166 99.4062 24.4986 100.194 24.0479C100.222 24.026 100.253 24.0085 100.283 23.991C100.314 23.9734 100.345 23.9559 100.373 23.934L103.57 21.8499L103.579 21.8449L103.588 21.8398L103.605 21.8298C107.735 19.1426 113.009 18.8006 117.466 20.9417C123.561 23.8714 126.7 30.6817 124.954 37.1596L124.832 37.6115C123.78 41.5147 121.128 44.8157 117.524 46.7037L87.3152 62.5402L72.6326 39.3584L68.6275 45.8365L81.4984 66.1579Z" fill="white"/>
</svg>
